<svg xmlns="http://www.w3.org/2000/svg" width="124" height="102" fill="none" viewBox="0 0 124 102"><rect width="124" height="102" fill="#E5E5E5"/><g id="Dashboard Login"><g clip-path="url(#clip0_0_1)"><rect width="1280" height="720" x="-578" y="-159" fill="#153A64"/><g id="BG"><path id="Vector" fill="#1B4571" d="M94.5 -20C-41.1 -7.2 -133.333 -108 -162.5 -160L701.5 -156.5V561.5H605C306.2 523.5 356.5 372 419 301C455.5 251.167 521.5 131.1 493.5 49.5C458.5 -52.5 264 -36 94.5 -20Z"/></g><g id="Form"><g id="Group"><path id="Vector_2" stroke="#fff" stroke-linecap="round" stroke-width="3.756" d="M2 2H15.6523C17.8311 2 19.7535 3.42651 20.3871 5.51343L41.7596 75.9005C42.3932 77.9874 44.3156 79.4139 46.4942 79.4139H94.6487C96.9129 79.4139 98.8889 77.8753 99.4455 75.6779L108.068 41.6561C108.624 39.4586 110.6 37.9201 112.865 37.9201H121.386"/><path id="Vector_3" fill="#fff" d="M72.5933 21.7428C71.8686 21.0174 70.6937 21.0174 69.969 21.7428L58.159 33.5667C57.4344 34.2923 57.4344 35.4686 58.159 36.1942C58.8837 36.9197 60.0588 36.9197 60.7835 36.1942L71.2811 25.6842L81.7788 36.1942C82.5035 36.9197 83.6785 36.9197 84.4032 36.1942C85.1279 35.4686 85.1279 34.2923 84.4032 33.5667L72.5933 21.7428ZM73.1369 57.7381V23.0566H69.4254V57.7381H73.1369Z"/><path id="Vector_4" stroke="#fff" stroke-width="3.005" d="M58.2909 99.8512C61.3656 99.8512 63.8581 97.3557 63.8581 94.2774C63.8581 91.1991 61.3656 88.7036 58.2909 88.7036C55.2162 88.7036 52.7236 91.1991 52.7236 94.2774C52.7236 97.3557 55.2162 99.8512 58.2909 99.8512Z"/><path id="Vector_5" stroke="#fff" stroke-width="3.005" d="M85.5085 99.8512C88.5832 99.8512 91.0757 97.3557 91.0757 94.2774C91.0757 91.1991 88.5832 88.7036 85.5085 88.7036C82.4338 88.7036 79.9412 91.1991 79.9412 94.2774C79.9412 97.3557 82.4338 99.8512 85.5085 99.8512Z"/></g></g></g><rect width="1279" height="719" x="-577.5" y="-158.5" stroke="#000"/></g><defs><clipPath id="clip0_0_1"><rect width="1280" height="720" x="-578" y="-159" fill="#fff"/></clipPath></defs></svg>