<svg width="22" height="22" viewBox="0 0 22 22" fill="none" xmlns="http://www.w3.org/2000/svg">
<g id="Base/stopwatch-start">
<g id="Group">
<g id="Group_2">
<path id="Vector (Stroke)" fill-rule="evenodd" clip-rule="evenodd" d="M10.7189 5.76063C6.97375 5.76063 3.93768 8.7967 3.93768 12.5419C3.93768 16.2871 6.97375 19.3231 10.7189 19.3231C14.4641 19.3231 17.5002 16.2871 17.5002 12.5419C17.5002 8.7967 14.4641 5.76063 10.7189 5.76063ZM2.62518 12.5419C2.62518 8.07182 6.24888 4.44813 10.7189 4.44813C15.189 4.44813 18.8127 8.07182 18.8127 12.5419C18.8127 17.0119 15.189 20.6356 10.7189 20.6356C6.24888 20.6356 2.62518 17.0119 2.62518 12.5419Z" fill="#686F82"/>
<path id="Vector (Stroke)_2" fill-rule="evenodd" clip-rule="evenodd" d="M7.43768 2.47938C7.43768 2.11694 7.7315 1.82313 8.09393 1.82313H13.3439C13.7064 1.82313 14.0002 2.11694 14.0002 2.47938C14.0002 2.84181 13.7064 3.13563 13.3439 3.13563H8.09393C7.7315 3.13563 7.43768 2.84181 7.43768 2.47938Z" fill="#686F82"/>
<path id="Vector (Stroke)_3" fill-rule="evenodd" clip-rule="evenodd" d="M10.7189 8.38563C11.0814 8.38563 11.3752 8.67944 11.3752 9.04188V12.5419C11.3752 12.9043 11.0814 13.1981 10.7189 13.1981C10.3565 13.1981 10.0627 12.9043 10.0627 12.5419V9.04188C10.0627 8.67944 10.3565 8.38563 10.7189 8.38563Z" fill="#686F82"/>
<path id="Vector (Stroke)_4" fill-rule="evenodd" clip-rule="evenodd" d="M10.0627 12.5419C10.0627 12.1794 10.3565 11.8856 10.7189 11.8856H14.2189C14.5814 11.8856 14.8752 12.1794 14.8752 12.5419C14.8752 12.9043 14.5814 13.1981 14.2189 13.1981H10.7189C10.3565 13.1981 10.0627 12.9043 10.0627 12.5419Z" fill="#686F82"/>
<path id="Vector (Stroke)_5" fill-rule="evenodd" clip-rule="evenodd" d="M10.7189 1.82313C11.0814 1.82313 11.3752 2.11694 11.3752 2.47938V4.22938C11.3752 4.59181 11.0814 4.88563 10.7189 4.88563C10.3565 4.88563 10.0627 4.59181 10.0627 4.22938V2.47938C10.0627 2.11694 10.3565 1.82313 10.7189 1.82313Z" fill="#686F82"/>
</g>
</g>
</g>
</svg>
